<?xml version="1.0" encoding="UTF-8" standalone="no"?>
<svg
   xmlns:dc="http://purl.org/dc/elements/1.1/"
   xmlns:cc="http://creativecommons.org/ns#"
   xmlns:rdf="http://www.w3.org/1999/02/22-rdf-syntax-ns#"
   xmlns:svg="http://www.w3.org/2000/svg"
   xmlns="http://www.w3.org/2000/svg"
   xml:space="preserve"
   style="enable-background:new 0 0 31.954 31.954;"
   viewBox="0 0 31.954 31.954"
   y="0px"
   x="0px"
   id="Capa_1"
   version="1.1"><metadata
   id="metadata46"><rdf:RDF><cc:Work
       rdf:about=""><dc:format>image/svg+xml</dc:format><dc:type
         rdf:resource="http://purl.org/dc/dcmitype/StillImage" /><dc:title></dc:title></cc:Work></rdf:RDF></metadata><defs
   id="defs44">
	
</defs>
<g
   id="eye">
		<path
   style="fill:#010002"
   d="M 31.919,15.757 C 31.909,15.715 31.915,15.67 31.899,15.629 31.893,15.612 31.878,15.603 31.872,15.587 31.862,15.563 31.864,15.536 31.851,15.513 28.951,9.962 22.638,5.985 15.978,5.985 9.317,5.985 3.005,9.956 0.103,15.506 0.09,15.529 0.092,15.556 0.082,15.58 0.075,15.596 0.061,15.605 0.055,15.622 0.039,15.663 0.045,15.708 0.035,15.75 0.017,15.825 0,15.897 0,15.974 c 0,0.077 0.018,0.148 0.035,0.224 0.01,0.042 0.004,0.087 0.02,0.128 0.006,0.017 0.021,0.026 0.027,0.042 0.01,0.024 0.008,0.051 0.021,0.074 2.901,5.551 9.214,9.528 15.875,9.528 6.66,0 12.973,-3.971 15.873,-9.521 0.014,-0.023 0.012,-0.05 0.021,-0.074 0.006,-0.016 0.021,-0.025 0.027,-0.042 0.016,-0.041 0.01,-0.086 0.02,-0.128 0.017,-0.076 0.035,-0.148 0.035,-0.224 0,-0.076 -0.018,-0.149 -0.035,-0.224 z m -15.942,8.212 c -5.615,0 -11.112,-3.191 -13.851,-7.995 2.754,-4.81 8.243,-7.99 13.851,-7.99 5.613,0 11.111,3.192 13.85,7.995 -2.754,4.811 -8.242,7.99 -13.85,7.99 z"
   id="path2" />
		
		<g
   transform="matrix(1.0909091,0,0,1.0909091,-1.1198832,-1.6598537)"
   id="g4802"><path
     id="path4"
     d="m 15.699243,11.451641 c -0.002,0 -0.004,10e-4 -0.006,10e-4 -2.59875,0.004 -4.704858,2.110819 -4.704858,4.709569 0,0.325288 0.264,0.589288 0.589286,0.589288 0.324106,0 0.588106,-0.264 0.588106,-0.589288 0,-1.947 1.58518,-3.532178 3.534537,-3.532178 v -10e-4 c 0.324107,0 0.586929,-0.264 0.586929,-0.5881 0,-0.326475 -0.261643,-0.5893 -0.586929,-0.5893 z"
     style="fill:#010002;stroke-width:0;stroke-miterlimit:4;stroke-dasharray:none" /><path
     id="path6"
     d="m 15.672143,7.9171159 c -4.557525,0 -8.25,3.6936501 -8.25,8.2500001 0,4.55635 3.69365,8.25 8.25,8.25 4.555175,0 8.25,-3.694825 8.25,-8.25 0,-4.557525 -3.694825,-8.2500001 -8.25,-8.2500001 z m 0,15.3214251 c -3.8999,0 -7.071426,-3.171525 -7.071426,-7.071425 0,-3.8999 3.171526,-7.0714276 7.071426,-7.0714276 3.8999,0 7.071425,3.1715276 7.071425,7.0714276 0,3.8999 -3.171525,7.071425 -7.071425,7.071425 z"
     style="fill:#010002;stroke-width:0;stroke-miterlimit:4;stroke-dasharray:none" /></g>
	</g>
<g
   id="g11">
</g>
<g
   id="g13">
</g>
<g
   id="g15">
</g>
<g
   id="g17">
</g>
<g
   id="g19">
</g>
<g
   id="g21">
</g>
<g
   id="g23">
</g>
<g
   id="g25">
</g>
<g
   id="g27">
</g>
<g
   id="g29">
</g>
<g
   id="g31">
</g>
<g
   id="g33">
</g>
<g
   id="g35">
</g>
<g
   id="g37">
</g>
<g
   id="g39">
</g>
</svg>