<?xml version="1.0" encoding="UTF-8" standalone="no"?>
<svg
   xmlns:dc="http://purl.org/dc/elements/1.1/"
   xmlns:cc="http://creativecommons.org/ns#"
   xmlns:rdf="http://www.w3.org/1999/02/22-rdf-syntax-ns#"
   xmlns:svg="http://www.w3.org/2000/svg"
   xmlns="http://www.w3.org/2000/svg"
   id="svg897"
   version="1.1"
   viewBox="0 0 190.78946 147.12474"
   height="147.12474mm"
   width="190.78946mm">
  <defs
     id="defs891">
    <linearGradient
       gradientTransform="scale(1.2219423,0.81836924)"
       id="gradientFill-1"
       x1="0.74144253"
       x2="590.86259"
       y1="3.6658269"
       y2="593.78698"
       gradientUnits="userSpaceOnUse"
       spreadMethod="pad">
      <stop
         offset="0"
         stop-color="rgb(203,206,208)"
         stop-opacity="1"
         id="stop1442" />
      <stop
         offset="1"
         stop-color="rgb(132,131,139)"
         stop-opacity="1"
         id="stop1444" />
    </linearGradient>
    <linearGradient
       gradientTransform="scale(0.9899476,1.0101545)"
       id="gradientFill-2"
       x1="301.02603"
       x2="703.06751"
       y1="151.40061"
       y2="553.44209"
       gradientUnits="userSpaceOnUse"
       spreadMethod="pad">
      <stop
         offset="0"
         stop-color="rgb(39,109,195)"
         stop-opacity="1"
         id="stop1447" />
      <stop
         offset="1"
         stop-color="rgb(22,92,170)"
         stop-opacity="1"
         id="stop1449" />
    </linearGradient>
    <filter
       id="filter1476"
       style="color-interpolation-filters:sRGB;">
      <feColorMatrix
         id="feColorMatrix1474"
         values="0.21 0.72 0.072 0 0 0.21 0.72 0.072 0 0 0.21 0.72 0.072 0 0 0 0 0 1 0 " />
    </filter>
  </defs>
  <metadata
     id="metadata894">
    <rdf:RDF>
      <cc:Work
         rdf:about="">
        <dc:format>image/svg+xml</dc:format>
        <dc:type
           rdf:resource="http://purl.org/dc/dcmitype/StillImage" />
        <dc:title></dc:title>
      </cc:Work>
    </rdf:RDF>
  </metadata>
  <g
     transform="translate(26.60306,-92.65787)"
     id="layer1">
    <g
       style="filter:url(#filter1476)"
       transform="matrix(0.26458333,0,0,0.26458333,-26.842772,91.86412)"
       id="g1472">
      <path
         style="fill:url(#gradientFill-1);fill-rule:evenodd"
         d="M 361.453,485.937 C 162.329,485.937 0.906,377.828 0.906,244.469 0.906,111.109 162.329,3 361.453,3 560.578,3 722,111.109 722,244.469 722,377.828 560.578,485.937 361.453,485.937 Z M 416.641,97.406 c -151.352,0 -274.047,73.908 -274.047,165.078 0,91.17 122.695,165.078 274.047,165.078 151.351,0 263.046,-50.529 263.046,-165.078 0,-114.513 -111.695,-165.078 -263.046,-165.078 z"
         id="path1454" />
      <path
         style="fill:url(#gradientFill-2);fill-rule:evenodd"
         d="m 550,377 c 0,0 21.822,6.585 34.5,13 4.399,2.226 12.01,6.668 17.5,12.5 5.378,5.712 8,11.5 8,11.5 L 696,559 557,559.062 492,437 c 0,0 -13.31,-22.869 -21.5,-29.5 -6.832,-5.531 -9.745,-7.5 -16.5,-7.5 -4.702,0 -33.026,0 -33.026,0 L 421,558.974 298,559.026 V 152.938 h 247 c 0,0 112.5,2.029 112.5,109.062 0,107.033 -107.5,115 -107.5,115 z m -53.5,-135.976 -74.463,-0.048 -0.037,69.05 74.5,-0.024 c 0,0 34.5,-0.107 34.5,-35.125 0,-35.722 -34.5,-33.853 -34.5,-33.853 z"
         id="path1456" />
    </g>
  </g>
</svg>
