<?xml version="1.0" encoding="UTF-8" standalone="no"?>
<svg
   xmlns:dc="http://purl.org/dc/elements/1.1/"
   xmlns:cc="http://creativecommons.org/ns#"
   xmlns:rdf="http://www.w3.org/1999/02/22-rdf-syntax-ns#"
   xmlns:svg="http://www.w3.org/2000/svg"
   xmlns="http://www.w3.org/2000/svg"
   xmlns:sodipodi="http://sodipodi.sourceforge.net/DTD/sodipodi-0.dtd"
   xmlns:inkscape="http://www.inkscape.org/namespaces/inkscape"
   class="icon"
   height="512"
   viewBox="0 0 512 1024"
   version="1.1"
   id="svg3875"
   sodipodi:docname="TypeScript_logo.svg"
   width="512"
   inkscape:version="0.92.4 5da689c313, 2019-01-14">
  <metadata
     id="metadata3881">
    <rdf:RDF>
      <cc:Work
         rdf:about="">
        <dc:format>image/svg+xml</dc:format>
        <dc:type
           rdf:resource="http://purl.org/dc/dcmitype/StillImage" />
        <dc:title></dc:title>
      </cc:Work>
    </rdf:RDF>
  </metadata>
  <defs
     id="defs3879" />
  <sodipodi:namedview
     pagecolor="#ffffff"
     bordercolor="#666666"
     borderopacity="1"
     objecttolerance="10"
     gridtolerance="10"
     guidetolerance="10"
     inkscape:pageopacity="0"
     inkscape:pageshadow="2"
     inkscape:window-width="3840"
     inkscape:window-height="2096"
     id="namedview3877"
     showgrid="false"
     inkscape:zoom="0.33007812"
     inkscape:cx="21.207101"
     inkscape:cy="256"
     inkscape:window-x="1920"
     inkscape:window-y="27"
     inkscape:window-maximized="1"
     inkscape:current-layer="svg3875" />
  <path
     d="m 584.09821,387.304 c 0,-16.37699 0.24048,-30.42187 -0.0461,-44.45754 -0.76339,-37.43663 7.19896,-31.63756 -32.69975,-44.96612 -1.0581,-0.35611 -2.13871,-0.68152 -3.23058,-0.87697 -64.28409,-11.50401 -128.07291,-13.59667 -190.12108,11.36279 -40.63037,16.33913 -70.92228,44.11064 -86.71497,85.43481 -19.70273,51.55621 -4.56394,109.25329 36.71316,147.42875 32.79287,30.32875 72.68749,49.08595 111.56186,69.50193 28.66383,15.05591 58.0184,28.67816 83.03823,50.04581 31.80436,27.15855 37.18183,65.37495 22.70819,99.25661 -13.78291,32.26689 -43.86095,40.97625 -74.50897,45.78068 -28.0304,4.39407 -56.30333,2.8847 -84.25187,-3.50585 -33.21754,-7.59293 -65.114,-18.00507 -93.03184,-38.41185 -2.14382,-1.5677 -6.00066,-3.16815 -7.7321,-2.24513 -1.77032,0.94349 -2.61147,4.9702 -2.64217,7.66149 -0.21387,19.4551 0.29573,38.92657 -0.31314,58.3612 -0.27424,8.73494 2.60943,13.61202 10.56359,17.28671 39.87518,18.43998 82.48258,24.90421 125.54432,27.18004 38.4712,2.03536 76.59754,-3.71869 112.79802,-17.42179 53.3337,-20.19802 87.10076,-57.88127 93.94361,-115.75639 5.3263,-45.09404 -8.13529,-84.59263 -40.68564,-117.27089 -33.52862,-33.65962 -74.74433,-55.0242 -116.40415,-76.05928 -28.85825,-14.57188 -58.6907,-27.62313 -83.19172,-49.70506 -22.22314,-20.02917 -31.94455,-44.32962 -26.70829,-74.19277 6.0283,-34.36876 30.37173,-50.41727 60.36278,-60.87341 23.75401,-8.28162 48.37783,-7.65024 72.95355,-7.06695 35.28667,0.83808 68.12866,10.56256 98.77463,28.05291 3.31756,1.89107 7.10891,2.94508 13.32038,5.45627 z M 168.49365,517.45013 c 0,-86.40491 0,-172.80777 0,-259.21267 0,-28.32205 -0.003,-28.31591 28.25144,-28.32 47.35043,-0.006 94.70392,0.0645 142.0523,-0.0901 13.13106,-0.042 14.84408,-2.00159 14.93618,-14.98223 0.0921,-13.46773 0.0266,-26.93239 0.0174,-40.39706 -0.0123,-18.61189 -0.0194,-18.67124 -18.61189,-18.67431 -121.92182,-0.0235 -243.841587,-0.0194 -365.761357,-0.0215 -16.03214,-0.002 -32.06428,-0.0532 -48.09641,0.0174 -15.19712,0.0655 -15.99326,0.86162 -16.04647,15.6136 -0.0522,14.2127 -0.0614,28.42642 -0.003,42.63912 0.0594,14.71515 1.13792,15.85306 16.0741,15.86841 49.96087,0.0563 99.92175,0.0246 149.88365,0.0246 17.34197,0 17.35323,0 17.35323,16.90911 0.004,129.41856 0.002,258.83712 0.003,388.25875 0,50.49607 -0.0123,100.99111 0.0113,151.48718 0.008,15.61361 0.38681,16.00656 15.392567,16.05567 16.40564,0.0553 32.81027,0.0532 49.21489,-10e-4 15.27898,-0.0553 15.32401,-0.10949 15.32605,-15.86432 0.008,-89.77158 0.003,-179.54112 0.003,-269.31065 z"
     id="path3873"
     inkscape:connector-curvature="0" />
</svg>
